<svg id="Layer_1" data-name="Layer 1" xmlns="http://www.w3.org/2000/svg" viewBox="0 0 144.59 144.59"><defs><style>.cls-1{fill:#a51d36;}.cls-2{fill:#fff;stroke:#fff;stroke-miterlimit:10;}</style></defs><rect class="cls-1" width="144.59" height="144.59" rx="40"/><path class="cls-2" d="M284.5,246.82a1.31,1.31,0,0,0-1-1.25l-10.41-2.74v0a43.14,43.14,0,0,0-3.92-9.45l0,0,5.42-9.3a1.3,1.3,0,0,0-.2-1.57l-10.86-10.86a1.3,1.3,0,0,0-.91-.38,1.35,1.35,0,0,0-.65.18l-9.3,5.42,0,0a43.52,43.52,0,0,0-9.45-3.91h0l-2.75-10.41a1.28,1.28,0,0,0-1.24-1H223.81a1.28,1.28,0,0,0-1.24,1l-2.75,10.41h0a43.52,43.52,0,0,0-9.45,3.91l0,0-9.3-5.42a1.35,1.35,0,0,0-.65-.18,1.3,1.3,0,0,0-.91.38l-10.86,10.86a1.3,1.3,0,0,0-.2,1.57l5.42,9.3,0,0a43.14,43.14,0,0,0-3.92,9.45v0l-10.41,2.74a1.31,1.31,0,0,0-1,1.25v15.36a1.31,1.31,0,0,0,1,1.25l10.4,2.74v0a43.14,43.14,0,0,0,3.92,9.45l0,0-5.42,9.3a1.3,1.3,0,0,0,.2,1.57l10.86,10.86a1.3,1.3,0,0,0,.91.38,1.35,1.35,0,0,0,.65-.18l9.3-5.42,0,0a43.31,43.31,0,0,0,9.45,3.91h0l2.75,10.41a1.28,1.28,0,0,0,1.24,1h15.38a1.28,1.28,0,0,0,1.24-1l2.75-10.41h0a43.31,43.31,0,0,0,9.45-3.91l0,0,9.3,5.42a1.35,1.35,0,0,0,.65.18,1.3,1.3,0,0,0,.91-.38l10.86-10.86a1.3,1.3,0,0,0,.2-1.57l-5.42-9.3,0,0a43.14,43.14,0,0,0,3.92-9.45v0l10.4-2.74a1.29,1.29,0,0,0,1-1.25Zm-13.1,17.5a40.76,40.76,0,0,1-4.25,10.24,1.31,1.31,0,0,0,0,1.31l5.31,9.1L263,294.45l-9.11-5.31a1.31,1.31,0,0,0-.65-.17,1.37,1.37,0,0,0-.65.17,40,40,0,0,1-10.25,4.25,1.31,1.31,0,0,0-.93.93l-2.68,10.18H225.29l-2.68-10.18a1.31,1.31,0,0,0-.93-.93,40,40,0,0,1-10.25-4.25,1.37,1.37,0,0,0-.65-.17,1.31,1.31,0,0,0-.65.17L201,294.45,191.55,285l5.31-9.1a1.31,1.31,0,0,0,0-1.31,40.76,40.76,0,0,1-4.25-10.24,1.27,1.27,0,0,0-.92-.94L181.5,260.7V247.3l10.18-2.68a1.27,1.27,0,0,0,.92-.94,40.54,40.54,0,0,1,4.25-10.23,1.32,1.32,0,0,0,0-1.32l-5.31-9.1,9.47-9.48,9.11,5.31a1.32,1.32,0,0,0,.65.18,1.38,1.38,0,0,0,.65-.18,40,40,0,0,1,10.24-4.25,1.3,1.3,0,0,0,.94-.93l2.68-10.18h13.42l2.68,10.18a1.3,1.3,0,0,0,.94.93,40,40,0,0,1,10.24,4.25,1.38,1.38,0,0,0,.65.18,1.32,1.32,0,0,0,.65-.18l9.11-5.31,9.47,9.48-5.31,9.1a1.32,1.32,0,0,0,0,1.32,40.54,40.54,0,0,1,4.25,10.23,1.27,1.27,0,0,0,.92.94l10.18,2.68v13.4l-10.18,2.68A1.29,1.29,0,0,0,271.4,264.32Z" transform="translate(-160.75 -180.71)"/><path class="cls-2" d="M231.91,221.55a32.45,32.45,0,1,0,23,9.51A32.22,32.22,0,0,0,231.91,221.55Zm-5.8,62a29.92,29.92,0,0,1-13.7-6.5l-.69-.58h11.73a3.1,3.1,0,0,1,3.05,2.91v4.24Zm28.21-10.4a27.14,27.14,0,0,1-1.87,2,30.27,30.27,0,0,1-14.56,7.68l-.39.09v-7.53a3.1,3.1,0,0,1,3.05-2.91H254.9Zm7.2-18.23a29.93,29.93,0,0,1-4.79,15.32l-.15.23h-16a5.37,5.37,0,0,0-5.1,5.27v8l-.29,0c-1,.1-2,.16-3,.16-.78,0-1.58,0-2.38-.1l-.3,0v-4a5.46,5.46,0,0,0-5.18-5.34H209.59l-.11-.13a30.2,30.2,0,0,1-7.38-16.52l0-.37h9.5a3,3,0,0,1,2.94,2.95v2s2.31,5.37,5.27,5h7.65l.08.58a4.43,4.43,0,0,0,4.17,3,4.42,4.42,0,0,0,0-8.84,4.41,4.41,0,0,0-4.17,3l-.08.33h-8a3,3,0,0,1-2.92-3v-2.58a5.48,5.48,0,0,0-5.14-5.42H201.5v-.12s.43-.26.43-.38a30.08,30.08,0,0,1,.82-6.95l.06-.55H214l.07.52a4.47,4.47,0,0,0,1.53,2.08,4.42,4.42,0,1,0,0-7.07,4.55,4.55,0,0,0-1.53,2.09l-.07.38H203.3l.18-.48a32.78,32.78,0,0,1,4.46-8.38l.12-.15h19.71s2.91,1.95,2.73,3.55v10.7l0,.08a4.52,4.52,0,0,0-2.08,1.52,4.42,4.42,0,1,0,7.07,0,4.6,4.6,0,0,0-2.09-1.52l-.86-.08v-10.7c.65-3-4.73-5.55-4.73-5.55h-16.7l.52-.55a28.81,28.81,0,0,1,9.47-6.73,27.89,27.89,0,0,1,11.24-2.37,27.33,27.33,0,0,1,4.94.44l.26,0,0,16.94a5.28,5.28,0,0,0,5.07,5.35,2.88,2.88,0,0,1,2.91,2.82V257l-.1.08a4.53,4.53,0,0,0-2.09,1.52,4.37,4.37,0,0,0-.88,2.65,4.42,4.42,0,1,0,5.87-4.17l-.8-.08v-7.28a5.24,5.24,0,0,0-5.13-5.37,2.81,2.81,0,0,1-2.87-2.81l0-16.85.42.12a30.2,30.2,0,0,1,11.5,6.38l.12.11v.17a.49.49,0,0,0,0,.12v17.51a5.38,5.38,0,0,0,5.37,5.37h4.67Zm-31.8,11.68a2,2,0,1,1,1.95,1.95A2,2,0,0,1,229.72,266.63Zm-13.47-21.06a1.95,1.95,0,1,1,1.95,2A1.95,1.95,0,0,1,216.25,245.57Zm15.66,6.48A2,2,0,1,1,230,254,2,2,0,0,1,231.91,252.05Zm14.94,7.28a1.95,1.95,0,1,1-1.95,1.95A2,2,0,0,1,246.85,259.33ZM262,252.15l0,.35h-4.63a2.91,2.91,0,0,1-2.91-2.91V234.4l.58.68A29.68,29.68,0,0,1,262,252.15Z" transform="translate(-160.75 -180.71)"/></svg>